<svg id="Layer_1" data-name="Layer 1" xmlns="http://www.w3.org/2000/svg" viewBox="0 0 750 250"><defs><style>.cls-1{fill:#c5fff1;}.cls-2{font-size:75px;font-family:OCRAStd, OCR A Std;}</style></defs><title>ClickGame</title><rect class="cls-1" x="3" y="3" width="744" height="244" rx="56.15" ry="56.15"/><path d="M690.85,6A53.21,53.21,0,0,1,744,59.15V190.85A53.21,53.21,0,0,1,690.85,244H59.15A53.21,53.21,0,0,1,6,190.85V59.15A53.21,53.21,0,0,1,59.15,6H690.85m0-6H59.15A59.15,59.15,0,0,0,0,59.15V190.85A59.15,59.15,0,0,0,59.15,250H690.85A59.15,59.15,0,0,0,750,190.85V59.15A59.15,59.15,0,0,0,690.85,0Z" transform="translate(0 0)"/><text class="cls-2" transform="translate(132.5 152.28)">Click Me!</text></svg>